<svg xmlns="http://www.w3.org/2000/svg" width="90" height="19.325" viewBox="0 0 90 19.325">
  <g id="Logo" transform="translate(-30.348 58.565) rotate(-90)">
    <g id="Group_1670" data-name="Group 1670" transform="translate(39.24 30.348)">
      <path id="Path_32601" data-name="Path 32601" d="M1.468,13.293A16.746,16.746,0,0,0,9.173,0,13.508,13.508,0,0,0,6.982.605,16.741,16.741,0,0,1,0,13.293,16.744,16.744,0,0,1,6.982,25.982a13.384,13.384,0,0,0,2.191.6A16.745,16.745,0,0,0,1.468,13.293Z" transform="translate(6.686 0.229)" fill="#db8a06"/>
      <path id="Path_32602" data-name="Path 32602" d="M6.987,23.015a13.531,13.531,0,0,0,2.044,1.248A15.66,15.66,0,0,0,1.819,12.131,15.657,15.657,0,0,0,9.031,0,13.622,13.622,0,0,0,6.987,1.246,13.619,13.619,0,0,1,0,12.131,13.619,13.619,0,0,1,6.987,23.015Z" transform="translate(3.34 1.391)" fill="#ffc72c"/>
      <path id="Path_32603" data-name="Path 32603" d="M0,13.522A16.739,16.739,0,0,1,7.813,26.99c.4.035.8.055,1.2.055.329,0,.654-.016.978-.039A16.746,16.746,0,0,0,1.547,13.522,16.746,16.746,0,0,0,9.993.039C9.669.016,9.344,0,9.015,0c-.405,0-.805.019-1.2.054A16.735,16.735,0,0,1,0,13.522Z" transform="translate(9.332 0)" fill="#dc8633"/>
      <path id="Path_32604" data-name="Path 32604" d="M2.052,7.259c.106,0,.21-.005.313-.007A7.612,7.612,0,0,1,3.433.863,9.919,9.919,0,0,0,2.764,0,7.627,7.627,0,0,0,.032,5.176,7.763,7.763,0,0,0,.1,7.082,11.181,11.181,0,0,0,2.052,7.259Z" transform="translate(3.703 17.255)" fill="#62cfc5"/>
      <path id="Path_32605" data-name="Path 32605" d="M2.052,0A11.125,11.125,0,0,0,.1.177,7.774,7.774,0,0,0,.032,2.085,7.623,7.623,0,0,0,2.764,7.259a9.75,9.75,0,0,0,.67-.863A7.607,7.607,0,0,1,2.365.009C2.262.005,2.158,0,2.052,0Z" transform="translate(3.703 2.531)" fill="#62cfc5"/>
      <path id="Path_32606" data-name="Path 32606" d="M.414,5.458A10.864,10.864,0,0,0,1.859,5.13,9.9,9.9,0,0,0,.608,0,7.611,7.611,0,0,0,.414,5.458Z" transform="translate(7.033 18.927)" fill="#abe4de"/>
      <path id="Path_32607" data-name="Path 32607" d="M.033,3.184A7.614,7.614,0,0,0,.608,5.458,9.909,9.909,0,0,0,1.859.327,10.958,10.958,0,0,0,.414,0,7.633,7.633,0,0,0,.033,3.184Z" transform="translate(7.033 2.661)" fill="#abe4de"/>
      <path id="Path_32608" data-name="Path 32608" d="M5.95.578Q5.644.276,5.314,0a7.653,7.653,0,0,0-5.3,6.582C.005,6.642,0,6.7,0,6.764a10.909,10.909,0,0,0,2.387,1.1A7.627,7.627,0,0,1,5.95.578Z" transform="translate(0 16.122)" fill="#2fc1b4"/>
      <path id="Path_32609" data-name="Path 32609" d="M2.376,1.5A7.7,7.7,0,0,1,2.387,0,10.994,10.994,0,0,0,0,1.1c0,.061.005.122.011.184a7.65,7.65,0,0,0,5.3,6.58c.22-.183.432-.376.636-.577A7.638,7.638,0,0,1,2.376,1.5Z" transform="translate(0 3.057)" fill="#2fc1b4"/>
    </g>
    <g id="Group_1674" data-name="Group 1674" transform="translate(41.318 61.666)">
      <g id="Services" transform="translate(0 3.66)">
        <path id="Path_32610" data-name="Path 32610" d="M1.812,2.209V.641H3.179V0H0V.641H1.292V2.209H0v.641H3.179V2.209Z" transform="translate(0.07 0)" fill="#db8a06"/>
        <path id="Path_32611" data-name="Path 32611" d="M3.316,1.68A1.6,1.6,0,0,0,1.658,0,1.6,1.6,0,0,0,0,1.68,1.6,1.6,0,0,0,1.658,3.365,1.6,1.6,0,0,0,3.316,1.68Zm-2.7,0A.994.994,0,0,1,1.658.663.994.994,0,0,1,2.7,1.68,1,1,0,0,1,1.658,2.709,1,1,0,0,1,.615,1.68Z" transform="translate(0 4.482)" fill="#db8a06"/>
        <path id="Path_32612" data-name="Path 32612" d="M1.753,1.62,3.179.175V0H0V.641H1.874l-.931.927V1.7l.931.922H0v.636H3.179v-.17Z" transform="translate(0.07 9.485)" fill="#db8a06"/>
        <path id="Path_32613" data-name="Path 32613" d="M0,0V2.469H.561V.641h.758V2.146h.525V.641h.772V2.469h.563V0Z" transform="translate(0.07 14.571)" fill="#db8a06"/>
        <path id="Path_32614" data-name="Path 32614" d="M2,1.424c.137-.5.221-.662.412-.662s.318.169.318.519a1.5,1.5,0,0,1-.264.858l.523.344a1.805,1.805,0,0,0,.329-1.2c0-.816-.377-1.24-.942-1.24-.509,0-.763.377-.965,1.1-.155.552-.261.688-.466.688s-.356-.153-.356-.54A1.761,1.761,0,0,1,.9.349L.408,0A1.953,1.953,0,0,0,0,1.3C0,2.17.445,2.558,1,2.558,1.516,2.558,1.791,2.2,2,1.424Z" transform="translate(0 20.437)" fill="#db8a06"/>
        <path id="Path_32615" data-name="Path 32615" d="M0,0V2.469H.561V.641h.758V2.147h.525V.641h.772V2.469h.563V0Z" transform="translate(0.07 24.616)" fill="#db8a06"/>
        <path id="Path_32616" data-name="Path 32616" d="M1.117,2.14a1.014,1.014,0,0,0,.97.6c.693,0,1.092-.5,1.092-1.3V0H0V.642H.968v.826L0,2.171V2.9H.063L1.068,2.14Zm.393-.71V.642H2.616v.772c0,.414-.189.663-.556.663S1.51,1.833,1.51,1.43Z" transform="translate(0.07 28.723)" fill="#db8a06"/>
        <path id="Path_32617" data-name="Path 32617" d="M1.753,1.976l-.6-.259V1.663l.6-.259L3.179.721V0L0,1.627v.117L3.179,3.38V2.655Z" transform="translate(0.07 32.643)" fill="#db8a06"/>
        <rect id="Rectangle_679" data-name="Rectangle 679" width="3.179" height="0.641" transform="translate(0.07 37.423)" fill="#db8a06"/>
        <path id="Path_32618" data-name="Path 32618" d="M2.7,1.7a1.306,1.306,0,0,1-.27.747l.493.367A1.535,1.535,0,0,0,3.316,1.69,1.611,1.611,0,0,0,1.658,0,1.611,1.611,0,0,0,0,1.69,1.549,1.549,0,0,0,.392,2.814l.493-.367A1.08,1.08,0,0,1,.609,1.7,1.007,1.007,0,0,1,1.658.663,1,1,0,0,1,2.7,1.7Z" transform="translate(0 39.701)" fill="#db8a06"/>
        <path id="Path_32619" data-name="Path 32619" d="M0,0V2.469H.561V.641h.758V2.146h.525V.641h.772V2.469h.563V0Z" transform="translate(0.07 44.057)" fill="#db8a06"/>
        <path id="Path_32620" data-name="Path 32620" d="M2,1.424c.137-.5.221-.661.412-.661s.318.168.318.518a1.5,1.5,0,0,1-.264.86l.523.343a1.808,1.808,0,0,0,.329-1.2c0-.817-.377-1.24-.942-1.24-.509,0-.763.377-.965,1.1-.155.551-.261.689-.466.689S.588,1.674.588,1.286A1.773,1.773,0,0,1,.9.348L.408,0A1.953,1.953,0,0,0,0,1.3c0,.869.445,1.256,1,1.256C1.516,2.558,1.791,2.2,2,1.424Z" transform="translate(0 47.946)" fill="#db8a06"/>
      </g>
      <g id="Monarch" transform="translate(7.093)">
        <path id="Path_32621" data-name="Path 32621" d="M4.161,3.915,7.8.364V0H0V1.288H5.085L2.51,3.772v.3L5.085,6.543H0V7.829H7.8V7.492Z" transform="translate(0.182)" fill="#2fc1b4"/>
        <path id="Path_32622" data-name="Path 32622" d="M8.154,4.083A3.918,3.918,0,0,0,4.072,0,3.923,3.923,0,0,0,0,4.083a3.927,3.927,0,0,0,4.072,4.1A3.922,3.922,0,0,0,8.154,4.083Zm-6.905,0A2.688,2.688,0,0,1,4.072,1.327,2.7,2.7,0,0,1,6.918,4.083a2.7,2.7,0,0,1-2.846,2.77A2.69,2.69,0,0,1,1.249,4.083Z" transform="translate(0 9.336)" fill="#2fc1b4"/>
        <path id="Path_32623" data-name="Path 32623" d="M0,6.686v.338H7.8V5.737H2.653L7.8.339V0H0V1.288H5.228Z" transform="translate(0.182 19.023)" fill="#2fc1b4"/>
        <path id="Path_32624" data-name="Path 32624" d="M1.182,2.03V6.075L0,6.659V8.128L7.8,4.175V3.929L0,0V1.457Zm1.185.584L5.422,4.02V4.1L2.367,5.489l-.131.079V2.537Z" transform="translate(0.183 26.993)" fill="#2fc1b4"/>
        <path id="Path_32625" data-name="Path 32625" d="M2.744,4.916A2.442,2.442,0,0,0,5.163,6.542c1.69,0,2.639-1.2,2.639-3.159V0H0V1.287H2.471V3.512L0,5.424V6.854H.182L2.665,4.916Zm.845-1.5V1.287H6.659V3.343c0,1.144-.52,1.873-1.547,1.873S3.589,4.5,3.589,3.42Z" transform="translate(0.183 36.056)" fill="#2fc1b4"/>
        <path id="Path_32626" data-name="Path 32626" d="M6.933,4.136a3.189,3.189,0,0,1-.754,1.976l1,.74a3.749,3.749,0,0,0,.975-2.743A3.955,3.955,0,0,0,4.072,0,3.959,3.959,0,0,0,0,4.109,3.726,3.726,0,0,0,.988,6.852l.99-.74a2.92,2.92,0,0,1-.741-1.976,2.733,2.733,0,0,1,2.835-2.81A2.748,2.748,0,0,1,6.933,4.136Z" transform="translate(0 43.754)" fill="#2fc1b4"/>
        <path id="Path_32627" data-name="Path 32627" d="M7.8,5.5H4.37V1.289H7.8V0H0V1.289H3.277V5.5H0V6.789H7.8Z" transform="translate(0.182 51.892)" fill="#2fc1b4"/>
      </g>
    </g>
  </g>
</svg>
